<svg width="40" height="40" viewBox="0 0 40 40" fill="none" xmlns="http://www.w3.org/2000/svg">
<path d="M20 0C14.6957 0 9.60859 2.10714 5.85786 5.85786C2.10714 9.60859 0 14.6957 0 20C0 25.3043 2.10714 30.3914 5.85786 34.1421C9.60859 37.8929 14.6957 40 20 40C25.3043 40 30.3914 37.8929 34.1421 34.1421C37.8929 30.3914 40 25.3043 40 20C40 14.6957 37.8929 9.60859 34.1421 5.85786C30.3914 2.10714 25.3043 0 20 0ZM20 37.1429V2.85714C22.2512 2.85714 24.4804 3.30056 26.5603 4.16207C28.6402 5.02357 30.53 6.28631 32.1218 7.87817C33.7137 9.47003 34.9764 11.3598 35.8379 13.4397C36.6994 15.5196 37.1429 17.7488 37.1429 20C37.1429 22.2512 36.6994 24.4804 35.8379 26.5603C34.9764 28.6402 33.7137 30.53 32.1218 32.1218C30.53 33.7137 28.6402 34.9764 26.5603 35.8379C24.4804 36.6994 22.2512 37.1429 20 37.1429Z" fill="#D33865"/>
</svg>
